<svg class="exclamation-mark" width="16px" height="72px" viewBox="0 0 16 72">
    <g id="Page-1" stroke="none" stroke-width="1" fill="none" fill-rule="evenodd" sketch:type="MSPage">
        <g transform="translate(-321.000000, -1950.000000)" fill="#FACE16">
            <path d="M335,1998.8 L323,1998.8 L323,1950.2 L335,1950.2 L335,1998.8 Z M321,2014 C321,2011.86666 321.783325,2010.03334 323.35,2008.5 C324.916674,2006.96666 326.799989,2006.2 329,2006.2 C331.133344,2006.2 332.999992,2006.93333 334.6,2008.4 C336.200008,2009.86667 337,2011.66666 337,2013.8 C337,2015.93334 336.216675,2017.76666 334.65,2019.3 C333.083326,2020.83334 331.200011,2021.6 329,2021.6 C327.933328,2021.6 326.916672,2021.4 325.95,2021 C324.983329,2020.6 324.133337,2020.06667 323.4,2019.4 C322.666663,2018.73333 322.083335,2017.93334 321.65,2017 C321.216664,2016.06666 321,2015.06667 321,2014 L321,2014 Z"></path>
        </g>
    </g>
</svg>