<svg class= "question-mark" width="46px" height="74px" viewBox="0 0 46 74">
    <g stroke="none" stroke-width="1" fill="none" fill-rule="evenodd">
        <g transform="translate(-304.000000, -3263.000000)" fill="#FACE16">
            <g transform="translate(300.000000, 3234.595777)">
                <path d="M21,80.1 L21,76.3 C21,74.699992 21.1166655,73.266673 21.35,72 C21.5833345,70.733327 21.9499975,69.533339 22.45,68.4 C22.9500025,67.266661 23.6166625,66.166672 24.45,65.1 C25.2833375,64.033328 26.333327,62.900006 27.6,61.7 L32.1,57.4 C33.366673,56.266661 34.4499955,55.000007 35.35,53.6 C36.2500045,52.199993 36.7,50.50001 36.7,48.5 C36.7,45.899987 35.8833415,43.7166755 34.25,41.95 C32.6166585,40.1833245 30.300015,39.3 27.3,39.3 C25.766659,39.3 24.3833395,39.5833305 23.15,40.15 C21.9166605,40.7166695 20.8500045,41.4833285 19.95,42.45 C19.0499955,43.4166715 18.366669,44.533327 17.9,45.8 C17.433331,47.066673 17.166667,48.36666 17.1,49.7 L4.8,48.6 C5.200002,45.399984 6.0499935,42.5500125 7.35,40.05 C8.6500065,37.5499875 10.333323,35.433342 12.4,33.7 C14.466677,31.966658 16.83332,30.6500045 19.5,29.75 C22.16668,28.8499955 25.033318,28.4 28.1,28.4 C30.966681,28.4 33.6833205,28.8166625 36.25,29.65 C38.8166795,30.4833375 41.0833235,31.7166585 43.05,33.35 C45.0166765,34.9833415 46.566661,36.999988 47.7,39.4 C48.833339,41.800012 49.4,44.566651 49.4,47.7 C49.4,49.833344 49.166669,51.699992 48.7,53.3 C48.233331,54.900008 47.566671,56.36666 46.7,57.7 C45.833329,59.03334 44.7833395,60.3166605 43.55,61.55 C42.3166605,62.7833395 40.933341,64.06666 39.4,65.4 C38.06666,66.533339 36.9833375,67.533329 36.15,68.4 C35.3166625,69.266671 34.6500025,70.133329 34.15,71 C33.6499975,71.866671 33.300001,72.799995 33.1,73.8 C32.899999,74.800005 32.8,76.033326 32.8,77.5 L32.8,80.1 L21,80.1 Z M19,94 C19,91.866656 19.7833255,90.033341 21.35,88.5 C22.9166745,86.966659 24.799989,86.2 27,86.2 C29.133344,86.2 30.999992,86.933326 32.6,88.4 C34.200008,89.866674 35,91.666656 35,93.8 C35,95.933344 34.2166745,97.766659 32.65,99.3 C31.0833255,100.833341 29.200011,101.6 27,101.6 C25.933328,101.6 24.9166715,101.400002 23.95,101 C22.9833285,100.599998 22.133337,100.06667 21.4,99.4 C20.666663,98.73333 20.0833355,97.933338 19.65,97 C19.2166645,96.066662 19,95.066672 19,94 L19,94 Z" id="?" sketch:type="MSShapeGroup"></path>
            </g>
        </g>
    </g>
</svg>