<?xml version="1.0" encoding="UTF-8" standalone="no"?>
<svg width="60px" height="49px" viewBox="0 0 60 49" version="1.1" xmlns="http://www.w3.org/2000/svg" xmlns:xlink="http://www.w3.org/1999/xlink" xmlns:sketch="http://www.bohemiancoding.com/sketch/ns">
    <!-- Generator: Sketch 3.3.3 (12081) - http://www.bohemiancoding.com/sketch -->
    <title>“ copy</title>
    <desc>Created with Sketch.</desc>
    <defs></defs>
    <g id="Page-1" stroke="none" stroke-width="1" fill="none" fill-rule="evenodd" sketch:type="MSPage">
        <g id="project-structure" sketch:type="MSArtboardGroup" transform="translate(-300.000000, -16608.000000)" stroke="#FACE16" fill="#FACE16">
            <g id="quotes-copy-2" sketch:type="MSLayerGroup" transform="translate(300.000000, 16596.930164)">
                <path d="M26.7089844,17.1523438 C23.9550644,18.7343829 21.7285241,20.096674 20.0292969,21.2392578 C18.3300696,22.3818417 16.6015713,23.8906156 14.84375,25.765625 C13.2031168,27.5234463 11.9433638,29.369131 11.0644531,31.3027344 C10.1855425,33.2363378 9.57031426,35.7265473 9.21875,38.7734375 L13.4375,38.7734375 C17.0703307,38.7734375 19.9267474,39.6669833 22.0068359,41.4541016 C24.0869245,43.2412199 25.1269531,45.863264 25.1269531,49.3203125 C25.1269531,51.7812623 24.2041108,54.081044 22.3583984,56.2197266 C20.5126861,58.3584091 17.9785317,59.4277344 14.7558594,59.4277344 C9.71677168,59.4277344 6.11329209,57.7724775 3.9453125,54.4619141 C1.77733291,51.1513506 0.693359375,46.8008082 0.693359375,41.4101562 C0.693359375,37.6015435 1.51366367,34.1298985 3.15429688,30.9951172 C4.79493008,27.8603359 6.78709766,25.0625123 9.13085938,22.6015625 C11.5332151,20.0820187 14.0820178,17.9433682 16.7773438,16.1855469 C19.4726697,14.4277256 21.7285065,12.9921931 23.5449219,11.8789062 L26.7089844,17.1523438 Z M59.2285156,17.1523438 C56.4745956,18.7343829 54.2480554,20.096674 52.5488281,21.2392578 C50.8496009,22.3818417 49.1211025,23.8906156 47.3632812,25.765625 C45.664054,27.5820403 44.3896527,29.4423733 43.5400391,31.3466797 C42.6904254,33.2509861 42.0898455,35.7265473 41.7382812,38.7734375 L45.9570312,38.7734375 C49.5898619,38.7734375 52.4462787,39.6669833 54.5263672,41.4541016 C56.6064557,43.2412199 57.6464844,45.863264 57.6464844,49.3203125 C57.6464844,51.7812623 56.723642,54.081044 54.8779297,56.2197266 C53.0322173,58.3584091 50.498063,59.4277344 47.2753906,59.4277344 C42.2363029,59.4277344 38.6328233,57.7724775 36.4648438,54.4619141 C34.2968642,51.1513506 33.2128906,46.8008082 33.2128906,41.4101562 C33.2128906,37.6015435 34.0331949,34.1298985 35.6738281,30.9951172 C37.3144613,27.8603359 39.3066289,25.0625123 41.6503906,22.6015625 C44.0527464,20.0820187 46.601549,17.9433682 49.296875,16.1855469 C51.992201,14.4277256 54.2480378,12.9921931 56.0644531,11.8789062 L59.2285156,17.1523438 Z" id="“-copy" sketch:type="MSShapeGroup"></path>
            </g>
        </g>
    </g>
</svg>