<?xml version="1.0" encoding="UTF-8" standalone="no"?>
<svg width="16px" height="73px" viewBox="0 0 16 73" version="1.1" xmlns="http://www.w3.org/2000/svg" xmlns:xlink="http://www.w3.org/1999/xlink" xmlns:sketch="http://www.bohemiancoding.com/sketch/ns">
    <!-- Generator: Sketch 3.4.1 (15681) - http://www.bohemiancoding.com/sketch -->
    <title>! </title>
    <desc>Created with Sketch.</desc>
    <defs></defs>
    <g id="Page-1" stroke="none" stroke-width="1" fill="none" fill-rule="evenodd" sketch:type="MSPage">
        <g id="flash-copy" sketch:type="MSArtboardGroup" transform="translate(-333.000000, -3032.000000)" fill="#4B2D80">
            <g id="problem" sketch:type="MSLayerGroup" transform="translate(333.000000, 3027.636364)">
                <path d="M14,53.8 L2,53.8 L2,5.2 L14,5.2 L14,53.8 Z M0,69 C0,66.866656 0.7833255,65.033341 2.35,63.5 C3.9166745,61.966659 5.799989,61.2 8,61.2 C10.133344,61.2 11.999992,61.933326 13.6,63.4 C15.200008,64.866674 16,66.666656 16,68.8 C16,70.933344 15.2166745,72.766659 13.65,74.3 C12.0833255,75.833341 10.200011,76.6 8,76.6 C6.933328,76.6 5.9166715,76.400002 4.95,76 C3.9833285,75.599998 3.133337,75.06667 2.4,74.4 C1.666663,73.73333 1.0833355,72.933338 0.65,72 C0.2166645,71.066662 0,70.066672 0,69 L0,69 Z" id="!-" sketch:type="MSShapeGroup"></path>
            </g>
        </g>
    </g>
</svg>