<?xml version="1.0" encoding="UTF-8" standalone="no"?>
<svg width="46px" height="74px" viewBox="0 0 46 74" version="1.1" xmlns="http://www.w3.org/2000/svg" xmlns:xlink="http://www.w3.org/1999/xlink" xmlns:sketch="http://www.bohemiancoding.com/sketch/ns">
    <!-- Generator: Sketch 3.4.1 (15681) - http://www.bohemiancoding.com/sketch -->
    <title>question-mark</title>
    <desc>Created with Sketch.</desc>
    <defs></defs>
    <g id="Page-1" stroke="none" stroke-width="1" fill="none" fill-rule="evenodd" sketch:type="MSPage">
        <g id="flash" sketch:type="MSArtboardGroup" transform="translate(-337.000000, -3683.000000)" fill="#4B2D80">
            <g id="driving-question" sketch:type="MSLayerGroup" transform="translate(0.000000, 3639.636364)">
                <path d="M354,95.1 L354,91.3 C354,89.699992 354.116666,88.266673 354.35,87 C354.583335,85.733327 354.949998,84.533339 355.45,83.4 C355.950003,82.266661 356.616663,81.166672 357.45,80.1 C358.283338,79.033328 359.333327,77.900006 360.6,76.7 L365.1,72.4 C366.366673,71.266661 367.449996,70.000007 368.35,68.6 C369.250005,67.199993 369.7,65.50001 369.7,63.5 C369.7,60.899987 368.883342,58.7166755 367.25,56.95 C365.616659,55.1833245 363.300015,54.3 360.3,54.3 C358.766659,54.3 357.38334,54.5833305 356.15,55.15 C354.916661,55.7166695 353.850005,56.4833285 352.95,57.45 C352.049996,58.4166715 351.366669,59.533327 350.9,60.8 C350.433331,62.066673 350.166667,63.36666 350.1,64.7 L337.8,63.6 C338.200002,60.399984 339.049994,57.5500125 340.35,55.05 C341.650007,52.5499875 343.333323,50.433342 345.4,48.7 C347.466677,46.966658 349.83332,45.6500045 352.5,44.75 C355.16668,43.8499955 358.033318,43.4 361.1,43.4 C363.966681,43.4 366.683321,43.8166625 369.25,44.65 C371.81668,45.4833375 374.083324,46.7166585 376.05,48.35 C378.016677,49.9833415 379.566661,51.999988 380.7,54.4 C381.833339,56.800012 382.4,59.566651 382.4,62.7 C382.4,64.833344 382.166669,66.699992 381.7,68.3 C381.233331,69.900008 380.566671,71.36666 379.7,72.7 C378.833329,74.03334 377.78334,75.3166605 376.55,76.55 C375.316661,77.7833395 373.933341,79.06666 372.4,80.4 C371.06666,81.533339 369.983338,82.533329 369.15,83.4 C368.316663,84.266671 367.650003,85.133329 367.15,86 C366.649998,86.866671 366.300001,87.799995 366.1,88.8 C365.899999,89.800005 365.8,91.033326 365.8,92.5 L365.8,95.1 L354,95.1 Z M352,109 C352,106.866656 352.783326,105.033341 354.35,103.5 C355.916675,101.966659 357.799989,101.2 360,101.2 C362.133344,101.2 363.999992,101.933326 365.6,103.4 C367.200008,104.866674 368,106.666656 368,108.8 C368,110.933344 367.216675,112.766659 365.65,114.3 C364.083326,115.833341 362.200011,116.6 360,116.6 C358.933328,116.6 357.916672,116.400002 356.95,116 C355.983329,115.599998 355.133337,115.06667 354.4,114.4 C353.666663,113.73333 353.083336,112.933338 352.65,112 C352.216665,111.066662 352,110.066672 352,109 L352,109 Z" id="question-mark" sketch:type="MSShapeGroup"></path>
            </g>
        </g>
    </g>
</svg>