<?xml version="1.0" encoding="UTF-8" standalone="no"?>
<svg width="59px" height="48px" viewBox="0 0 59 48" version="1.1" xmlns="http://www.w3.org/2000/svg" xmlns:xlink="http://www.w3.org/1999/xlink" xmlns:sketch="http://www.bohemiancoding.com/sketch/ns">
    <!-- Generator: Sketch 3.4.1 (15681) - http://www.bohemiancoding.com/sketch -->
    <title>quote</title>
    <desc>Created with Sketch.</desc>
    <defs></defs>
    <g id="Page-1" stroke="none" stroke-width="1" fill="none" fill-rule="evenodd" sketch:type="MSPage">
        <g id="flash" sketch:type="MSArtboardGroup" transform="translate(-634.000000, -15898.000000)" fill="#4B2D80">
            <g id="form-based" sketch:type="MSLayerGroup" transform="translate(333.000000, 15645.000000)">
                <path d="M327.015625,258.273438 C324.261705,259.855477 322.035165,261.217768 320.335938,262.360352 C318.63671,263.502935 316.908212,265.011709 315.150391,266.886719 C313.509757,268.64454 312.250004,270.490225 311.371094,272.423828 C310.492183,274.357432 309.876955,276.847641 309.525391,279.894531 L313.744141,279.894531 C317.376971,279.894531 320.233388,280.788077 322.313477,282.575195 C324.393565,284.362314 325.433594,286.984358 325.433594,290.441406 C325.433594,292.902356 324.510751,295.202138 322.665039,297.34082 C320.819327,299.479503 318.285172,300.548828 315.0625,300.548828 C310.023412,300.548828 306.419933,298.893571 304.251953,295.583008 C302.083974,292.272444 301,287.921902 301,282.53125 C301,278.722637 301.820304,275.250992 303.460938,272.116211 C305.101571,268.98143 307.093738,266.183606 309.4375,263.722656 C311.839856,261.203112 314.388658,259.064462 317.083984,257.306641 C319.77931,255.548819 322.035147,254.113287 323.851562,253 L327.015625,258.273438 Z M359.535156,258.273438 C356.781236,259.855477 354.554696,261.217768 352.855469,262.360352 C351.156242,263.502935 349.427743,265.011709 347.669922,266.886719 C345.970695,268.703134 344.696293,270.563467 343.84668,272.467773 C342.997066,274.37208 342.396486,276.847641 342.044922,279.894531 L346.263672,279.894531 C349.896503,279.894531 352.752919,280.788077 354.833008,282.575195 C356.913096,284.362314 357.953125,286.984358 357.953125,290.441406 C357.953125,292.902356 357.030283,295.202138 355.18457,297.34082 C353.338858,299.479503 350.804704,300.548828 347.582031,300.548828 C342.542944,300.548828 338.939464,298.893571 336.771484,295.583008 C334.603505,292.272444 333.519531,287.921902 333.519531,282.53125 C333.519531,278.722637 334.339836,275.250992 335.980469,272.116211 C337.621102,268.98143 339.61327,266.183606 341.957031,263.722656 C344.359387,261.203112 346.90819,259.064462 349.603516,257.306641 C352.298842,255.548819 354.554678,254.113287 356.371094,253 L359.535156,258.273438 Z" id="quote" sketch:type="MSShapeGroup"></path>
            </g>
        </g>
    </g>
</svg>