<?xml version="1.0" encoding="UTF-8" standalone="no"?>
<svg width="70px" height="54px" viewBox="0 0 70 54" version="1.1" xmlns="http://www.w3.org/2000/svg" xmlns:xlink="http://www.w3.org/1999/xlink" xmlns:sketch="http://www.bohemiancoding.com/sketch/ns">
    <!-- Generator: Sketch 3.4.1 (15681) - http://www.bohemiancoding.com/sketch -->
    <title>comet</title>
    <desc>Created with Sketch.</desc>
    <defs></defs>
    <g id="Page-1" stroke="none" stroke-width="1" fill="none" fill-rule="evenodd" sketch:type="MSPage">
        <g id="1021-playground-full-width" sketch:type="MSArtboardGroup" transform="translate(-973.000000, -121.000000)" fill="#FFFFFF">
            <g id="comet" sketch:type="MSLayerGroup" transform="translate(973.500000, 121.000000)">
                <rect id="Rectangle-10-Copy-18" sketch:type="MSShapeGroup" transform="translate(6.000000, 48.000000) rotate(-315.000000) translate(-6.000000, -48.000000) " x="2" y="44" width="8" height="8"></rect>
                <rect id="Rectangle-10-Copy-19" sketch:type="MSShapeGroup" transform="translate(17.500000, 40.500000) rotate(-315.000000) translate(-17.500000, -40.500000) " x="14" y="37" width="7" height="7"></rect>
                <rect id="Rectangle-10-Copy-20" sketch:type="MSShapeGroup" transform="translate(26.000000, 34.000000) rotate(-315.000000) translate(-26.000000, -34.000000) " x="23" y="31" width="6" height="6"></rect>
                <rect id="Rectangle-10-Copy-21" sketch:type="MSShapeGroup" transform="translate(34.500000, 27.500000) rotate(-315.000000) translate(-34.500000, -27.500000) " x="32" y="25" width="5" height="5"></rect>
                <rect id="Rectangle-10-Copy-22" sketch:type="MSShapeGroup" transform="translate(43.000000, 21.000000) rotate(-315.000000) translate(-43.000000, -21.000000) " x="41" y="19" width="4" height="4"></rect>
                <rect id="Rectangle-10-Copy-23" sketch:type="MSShapeGroup" transform="translate(51.500000, 14.500000) rotate(-315.000000) translate(-51.500000, -14.500000) " x="50" y="13" width="3" height="3"></rect>
                <rect id="Rectangle-10-Copy-24" sketch:type="MSShapeGroup" transform="translate(60.000000, 8.000000) rotate(-315.000000) translate(-60.000000, -8.000000) " x="59" y="7" width="2" height="2"></rect>
                <rect id="Rectangle-10-Copy-25" sketch:type="MSShapeGroup" transform="translate(68.500000, 1.500000) rotate(-315.000000) translate(-68.500000, -1.500000) " x="68" y="1" width="1" height="1"></rect>
            </g>
        </g>
    </g>
</svg>