<?xml version="1.0" encoding="UTF-8" standalone="no"?>
<svg width="61px" height="50px" viewBox="0 0 61 50" version="1.1" xmlns="http://www.w3.org/2000/svg" xmlns:xlink="http://www.w3.org/1999/xlink">
    <!-- Generator: Sketch 3.8.2 (29753) - http://www.bohemiancoding.com/sketch -->
    <title>“</title>
    <desc>Created with Sketch.</desc>
    <defs></defs>
    <g id="Page-1" stroke="none" stroke-width="1" fill="none" fill-rule="evenodd">
        <g id="workspace" transform="translate(-390.000000, -780.000000)" stroke="#283374" fill="#283374">
            <path d="M417.015625,786.273438 C414.261705,787.855477 412.035165,789.217768 410.335938,790.360352 C408.63671,791.502935 406.908212,793.011709 405.150391,794.886719 C403.509757,796.64454 402.250004,798.490225 401.371094,800.423828 C400.492183,802.357432 399.876955,804.847641 399.525391,807.894531 L403.744141,807.894531 C407.376971,807.894531 410.233388,808.788077 412.313477,810.575195 C414.393565,812.362314 415.433594,814.984358 415.433594,818.441406 C415.433594,820.902356 414.510751,823.202138 412.665039,825.34082 C410.819327,827.479503 408.285172,828.548828 405.0625,828.548828 C400.023412,828.548828 396.419933,826.893571 394.251953,823.583008 C392.083974,820.272444 391,815.921902 391,810.53125 C391,806.722637 391.820304,803.250992 393.460938,800.116211 C395.101571,796.98143 397.093738,794.183606 399.4375,791.722656 C401.839856,789.203112 404.388658,787.064462 407.083984,785.306641 C409.77931,783.548819 412.035147,782.113287 413.851562,781 L417.015625,786.273438 Z M449.535156,786.273438 C446.781236,787.855477 444.554696,789.217768 442.855469,790.360352 C441.156242,791.502935 439.427743,793.011709 437.669922,794.886719 C435.970695,796.703134 434.696293,798.563467 433.84668,800.467773 C432.997066,802.37208 432.396486,804.847641 432.044922,807.894531 L436.263672,807.894531 C439.896503,807.894531 442.752919,808.788077 444.833008,810.575195 C446.913096,812.362314 447.953125,814.984358 447.953125,818.441406 C447.953125,820.902356 447.030283,823.202138 445.18457,825.34082 C443.338858,827.479503 440.804704,828.548828 437.582031,828.548828 C432.542944,828.548828 428.939464,826.893571 426.771484,823.583008 C424.603505,820.272444 423.519531,815.921902 423.519531,810.53125 C423.519531,806.722637 424.339836,803.250992 425.980469,800.116211 C427.621102,796.98143 429.61327,794.183606 431.957031,791.722656 C434.359387,789.203112 436.90819,787.064462 439.603516,785.306641 C442.298842,783.548819 444.554678,782.113287 446.371094,781 L449.535156,786.273438 Z" id="“"></path>
        </g>
    </g>
</svg>