<?xml version="1.0" encoding="UTF-8" standalone="no"?>
<svg width="45px" height="74px" viewBox="0 0 45 74" version="1.1" xmlns="http://www.w3.org/2000/svg" xmlns:xlink="http://www.w3.org/1999/xlink">
    <!-- Generator: Sketch 3.8.2 (29753) - http://www.bohemiancoding.com/sketch -->
    <title>question-mark</title>
    <desc>Created with Sketch.</desc>
    <defs></defs>
    <g id="Page-1" stroke="none" stroke-width="1" fill="none" fill-rule="evenodd">
        <g id="workspace" transform="translate(-259.000000, -768.000000)" fill="#283374">
            <path d="M275.2,819.7 L275.2,815.9 C275.2,814.299992 275.316665,812.866673 275.55,811.6 C275.783335,810.333327 276.149997,809.133339 276.65,808 C277.150003,806.866661 277.816663,805.766672 278.65,804.7 C279.483338,803.633328 280.533327,802.500006 281.8,801.3 L286.3,797 C287.566673,795.866661 288.649995,794.600007 289.55,793.2 C290.450004,791.799993 290.9,790.10001 290.9,788.1 C290.9,785.499987 290.083342,783.316675 288.45,781.55 C286.816659,779.783325 284.500015,778.9 281.5,778.9 C279.966659,778.9 278.58334,779.183331 277.35,779.75 C276.116661,780.316669 275.050005,781.083328 274.15,782.05 C273.249996,783.016672 272.566669,784.133327 272.1,785.4 C271.633331,786.666673 271.366667,787.96666 271.3,789.3 L259,788.2 C259.400002,784.999984 260.249994,782.150013 261.55,779.65 C262.850007,777.149988 264.533323,775.033342 266.6,773.3 C268.666677,771.566658 271.03332,770.250005 273.7,769.35 C276.36668,768.449995 279.233318,768 282.3,768 C285.166681,768 287.883321,768.416663 290.45,769.25 C293.01668,770.083337 295.283323,771.316659 297.25,772.95 C299.216677,774.583341 300.766661,776.599988 301.9,779 C303.033339,781.400012 303.6,784.166651 303.6,787.3 C303.6,789.433344 303.366669,791.299992 302.9,792.9 C302.433331,794.500008 301.766671,795.96666 300.9,797.3 C300.033329,798.63334 298.983339,799.916661 297.75,801.15 C296.516661,802.38334 295.133341,803.66666 293.6,805 C292.26666,806.133339 291.183337,807.133329 290.35,808 C289.516662,808.866671 288.850003,809.733329 288.35,810.6 C287.849997,811.466671 287.500001,812.399995 287.3,813.4 C287.099999,814.400005 287,815.633326 287,817.1 L287,819.7 L275.2,819.7 Z M273.2,833.6 C273.2,831.466656 273.983325,829.633341 275.55,828.1 C277.116674,826.566659 278.999989,825.8 281.2,825.8 C283.333344,825.8 285.199992,826.533326 286.8,828 C288.400008,829.466674 289.2,831.266656 289.2,833.4 C289.2,835.533344 288.416674,837.366659 286.85,838.9 C285.283325,840.433341 283.400011,841.2 281.2,841.2 C280.133328,841.2 279.116671,841.000002 278.15,840.6 C277.183329,840.199998 276.333337,839.66667 275.6,839 C274.866663,838.33333 274.283336,837.533338 273.85,836.6 C273.416665,835.666662 273.2,834.666672 273.2,833.6 L273.2,833.6 Z" id="question-mark" style="mix-blend-mode: multiply;"></path>
        </g>
    </g>
</svg>